<svg width="60" height="76" viewBox="0 0 60 76" fill="none" xmlns="http://www.w3.org/2000/svg">
<path d="M11.8749 55.988C9.00273 60.9028 7.49003 66.4933 7.49204 72.1858C7.49204 73.1793 7.09737 74.1321 6.39486 74.8346C5.69234 75.5371 4.73953 75.9318 3.74602 75.9318C2.75251 75.9318 1.7997 75.5371 1.09718 74.8346C0.394669 74.1321 0 73.1793 0 72.1858C0 64.233 2.38621 56.5911 6.68665 50.1629C3.87233 45.8433 2.39342 40.79 2.43473 35.6346C2.47603 30.4792 4.03572 25.4503 6.9189 21.1762C12.3207 13.171 30.0169 6.1135 60 0C58.9961 25.664 55.797 42.4986 50.3989 50.5038C48.3485 53.544 45.6831 56.1203 42.5751 58.0664C39.467 60.0125 35.9853 61.285 32.3549 61.8018C28.7245 62.3186 25.026 62.0682 21.4983 61.0668C17.9707 60.0654 14.6923 58.3352 11.8749 55.988ZM16.3926 49.9944C18.3955 51.7298 20.744 53.0203 23.2827 53.7808C25.8214 54.5413 28.4926 54.7544 31.1198 54.406C33.747 54.0576 36.2703 53.1557 38.523 51.7597C40.7758 50.3638 42.7066 48.5058 44.188 46.3083C47.9491 40.7342 50.6949 28.2712 51.9948 9.41C29.7322 14.6057 16.5462 20.3072 13.1298 25.368C11.2965 28.084 10.2081 31.2336 9.97344 34.502C9.73876 37.7704 10.366 41.0432 11.7925 43.9933C13.4033 42.4087 15.1526 40.9552 17.0369 39.6479L18.9399 38.3293C19.7565 37.7635 20.7645 37.5453 21.7421 37.7226C22.7196 37.9 23.5867 38.4585 24.1525 39.2751C24.7183 40.0918 24.9365 41.0998 24.7591 42.0773C24.5817 43.0549 24.0233 43.9219 23.2066 44.4877L21.3074 45.8063C19.5323 47.0347 17.8857 48.4353 16.3926 49.9944Z" fill="#00FF00"/>
</svg>
