<svg width="60" height="60" viewBox="0 0 60 60" fill="none" xmlns="http://www.w3.org/2000/svg">
<path d="M49.1558 21L31.6001 6V15C31.6001 16.65 32.2883 18.063 33.6647 19.239C35.041 20.415 36.6936 21.002 38.6224 21H49.1558ZM49.1558 52.275L44.2402 56.4C43.5965 56.95 42.7913 57.238 41.8245 57.264C40.8578 57.29 40.0245 57.002 39.3246 56.4C38.6809 55.85 38.3591 55.15 38.3591 54.3C38.3591 53.45 38.6809 52.75 39.3246 52.2L44.2402 48L39.3246 43.8C38.6809 43.25 38.3591 42.55 38.3591 41.7C38.3591 40.85 38.6809 40.15 39.3246 39.6C39.9683 39.05 40.7876 38.775 41.7824 38.775C42.7772 38.775 43.5965 39.05 44.2402 39.6L49.1558 43.8L54.0713 39.6C54.715 39.05 55.5203 38.763 56.487 38.739C57.4537 38.715 58.287 39.002 58.9869 39.6C59.6306 40.15 59.9525 40.85 59.9525 41.7C59.9525 42.55 59.6306 43.25 58.9869 43.8L54.1591 48L58.9869 52.2C59.6306 52.75 59.9677 53.438 59.9981 54.264C60.0285 55.09 59.6915 55.802 58.9869 56.4C58.3432 56.95 57.5239 57.225 56.5291 57.225C55.5343 57.225 54.715 56.95 54.0713 56.4L49.1558 52.275ZM7.02226 60C5.09114 60 3.4374 59.412 2.06104 58.236C0.684675 57.06 -0.00233479 55.648 5.96117e-06 54V6C5.96117e-06 4.35 0.688186 2.937 2.06455 1.761C3.44091 0.585005 5.09348 -0.00199491 7.02226 5.09338e-06H32.2146C33.1509 5.09338e-06 34.0439 0.150005 34.8936 0.450005C35.7433 0.750005 36.4888 1.17501 37.1302 1.72501L54.1591 16.275C54.8028 16.825 55.3002 17.463 55.6513 18.189C56.0025 18.915 56.178 19.677 56.178 20.475V31.05C55.0662 30.7 53.9098 30.437 52.709 30.261C51.5082 30.085 50.2957 29.998 49.0715 30C43.2196 30 38.2607 31.738 34.1949 35.214C30.129 38.69 28.0937 42.926 28.089 47.922C28.089 50.172 28.5572 52.335 29.4935 54.411C30.4298 56.487 31.7757 58.35 33.5313 60H7.02226Z" fill="#FF0000"/>
</svg>
