<svg width="89" height="89" viewBox="0 0 89 89" fill="none" xmlns="http://www.w3.org/2000/svg">
<path d="M72.3125 33.3749C69.4459 33.4513 66.6657 32.3888 64.5806 30.42C62.4956 28.4512 61.2755 25.7365 61.1875 22.8701C61.2394 20.8236 61.869 18.8335 63.0037 17.1296L70.0041 6.71384C70.273 6.35572 70.6216 6.06508 71.0223 5.86491C71.4229 5.66475 71.8647 5.56055 72.3125 5.56055C72.7604 5.56055 73.2021 5.66475 73.6028 5.86491C74.0034 6.06508 74.352 6.35572 74.621 6.71384L81.5324 16.9933C82.7137 18.7311 83.3746 20.7698 83.4375 22.8701C83.3495 25.7365 82.1295 28.4512 80.0444 30.42C77.9594 32.3888 75.1792 33.4513 72.3125 33.3749ZM72.3125 13.247L67.7068 20.0972C67.1312 20.912 66.7994 21.8738 66.75 22.8701C66.9114 24.232 67.5669 25.4874 68.5921 26.3982C69.6173 27.3091 70.9411 27.8122 72.3125 27.8122C73.684 27.8122 75.0077 27.3091 76.0329 26.3982C77.0582 25.4874 77.7136 24.232 77.875 22.8701C77.8127 21.8198 77.4508 20.8092 76.8321 19.9582L72.3125 13.247ZM65.3594 83.4374H23.6407C19.1602 83.4422 14.8378 81.782 11.5126 78.7791C8.18734 75.7763 6.0965 71.645 5.64594 67.1872C5.19539 62.7295 6.41727 58.2634 9.07437 54.6559C11.7315 51.0483 15.6342 48.5568 20.025 47.665C21.2101 42.0518 24.2887 37.0166 28.7446 33.4032C33.2006 29.7898 38.7631 27.8179 44.5 27.8179C50.2369 27.8179 55.7995 29.7898 60.2554 33.4032C64.7114 37.0166 67.7899 42.0518 68.975 47.665C73.3658 48.5568 77.2686 51.0483 79.9257 54.6559C82.5828 58.2634 83.8047 62.7295 83.3541 67.1872C82.9036 71.645 80.8127 75.7763 77.4875 78.7791C74.1622 81.782 69.8398 83.4422 65.3594 83.4374ZM44.5 33.3749C39.7516 33.3794 35.1685 35.1191 31.6131 38.2667C28.0578 41.4143 25.7754 45.7528 25.1954 50.4657L24.9172 52.7241L22.6505 52.9021C19.4222 53.1479 16.415 54.6363 14.2618 57.0541C12.1085 59.4719 10.9769 62.6307 11.1052 65.8659C11.2335 69.101 12.6115 72.1603 14.9495 74.4C17.2874 76.6398 20.403 77.8855 23.6407 77.8749H65.3594C68.5971 77.8855 71.7126 76.6398 74.0506 74.4C76.3885 72.1603 77.7666 69.101 77.8949 65.8659C78.0231 62.6307 76.8916 59.4719 74.7383 57.0541C72.585 54.6363 69.5779 53.1479 66.3495 52.9021L64.0828 52.7241L63.8075 50.4657C63.2263 45.7528 60.9431 41.4146 57.3875 38.2672C53.8318 35.1197 49.2486 33.3799 44.5 33.3749Z" fill="#2D63ED"/>
</svg>
