<svg width="190" height="190" viewBox="0 0 190 190" fill="none" xmlns="http://www.w3.org/2000/svg">
<path d="M163.137 109.442C163.482 111.397 163.713 113.325 163.827 115.225C163.943 117.124 164 119.05 164 121C164 130.545 162.188 139.515 158.563 147.91C154.938 156.305 150.023 163.607 143.818 169.817C137.608 176.027 130.305 180.945 121.91 184.57C113.515 188.194 104.545 190.005 95 190C85.455 190 76.485 188.188 68.09 184.563C59.695 180.938 52.3925 176.023 46.1825 169.817C39.9725 163.607 35.0574 156.305 31.4372 147.91C27.817 139.515 26.0046 130.545 26 121C26 111.455 27.8124 102.485 31.4372 94.09C35.062 85.695 39.9771 78.3925 46.1825 72.1825C52.3925 65.9725 59.695 61.0574 68.09 57.4372C76.485 53.817 85.455 52.0046 95 52C100.865 52 106.53 52.7199 111.995 54.1597C117.46 55.5995 122.605 57.5821 127.43 60.1075C129.155 61.0275 130.22 62.4374 130.625 64.3372C131.03 66.237 130.597 67.9896 129.328 69.595C128.178 71.09 126.683 72.0675 124.843 72.5275C123.003 72.9875 121.277 72.7575 119.668 71.8375C115.988 69.8825 112.05 68.3875 107.855 67.3525C103.66 66.3175 99.3746 65.8 95 65.8C79.705 65.8 66.6824 71.1751 55.9322 81.9253C45.182 92.6755 39.8046 105.7 39.8 121C39.8 136.295 45.1751 149.32 55.9253 160.075C66.6755 170.829 79.7004 176.205 95 176.2C110.295 176.2 123.32 170.825 134.075 160.075C144.83 149.324 150.205 136.3 150.2 121C150.2 119.505 150.143 118.038 150.028 116.598C149.913 115.158 149.74 113.693 149.51 112.202C149.28 110.592 149.54 109.097 150.29 107.717C151.04 106.337 152.102 105.245 153.478 104.44C155.433 103.29 157.417 103.262 159.432 104.357C161.447 105.452 162.682 107.147 163.137 109.442ZM80.51 147.91L60.6725 128.072C59.4075 126.807 58.8026 125.225 58.8578 123.325C58.913 121.425 59.5754 119.845 60.845 118.585C62.11 117.32 63.72 116.687 65.675 116.687C67.63 116.687 69.24 117.32 70.505 118.585L85.34 133.42L149.682 68.905C150.947 67.64 152.53 67.0374 154.43 67.0972C156.33 67.157 157.91 67.8171 159.17 69.0775C160.435 70.3425 161.068 71.9525 161.068 73.9075C161.068 75.8625 160.435 77.4725 159.17 78.7375L90.17 147.91C88.905 149.175 87.295 149.807 85.34 149.807C83.385 149.807 81.775 149.175 80.51 147.91Z" fill="#62EC56"/>
</svg>
