<svg width="41" height="79" viewBox="0 0 41 79" fill="none" xmlns="http://www.w3.org/2000/svg">
<path d="M40.801 59.25C40.801 62.6165 39.9122 65.9271 38.2188 68.8675C36.5254 71.8079 34.0838 74.2805 31.1257 76.0503C28.1677 77.8202 24.7914 78.8287 21.3175 78.98C17.8436 79.1314 14.3874 78.4205 11.2771 76.9149C8.16685 75.4094 5.50572 73.1591 3.54642 70.3778C1.58713 67.5965 0.394728 64.3766 0.0824382 61.0237C-0.229852 57.6707 0.348339 54.2962 1.76211 51.2205C3.17588 48.1447 5.37829 45.4699 8.16021 43.45V11.85C8.16021 8.70718 9.44981 5.69309 11.7453 3.47078C14.0408 1.24848 17.1542 0 20.4005 0C23.6469 0 26.7602 1.24848 29.0557 3.47078C31.3512 5.69309 32.6408 8.70718 32.6408 11.85V43.45C37.5941 47.0524 40.801 52.7878 40.801 59.25ZM27.7406 49.766L24.4806 47.396V11.85C24.4806 10.8024 24.0508 9.7977 23.2856 9.05693C22.5204 8.31616 21.4826 7.9 20.4005 7.9C19.3184 7.9 18.2806 8.31616 17.5155 9.05693C16.7503 9.7977 16.3204 10.8024 16.3204 11.85V47.396L13.0604 49.766C11.0042 51.2577 9.48502 53.338 8.71812 55.7122C7.95123 58.0863 7.97551 60.6339 8.78754 62.994C9.59957 65.354 11.1582 67.4068 13.2425 68.8615C15.3268 70.3162 17.8311 71.099 20.4005 71.099C22.97 71.099 25.4743 70.3162 27.5586 68.8615C29.6429 67.4068 31.2015 65.354 32.0135 62.994C32.8255 60.6339 32.8498 58.0863 32.0829 55.7122C31.316 53.338 29.7968 51.2577 27.7406 49.766ZM20.4005 67.15C18.2363 67.15 16.1607 66.3177 14.6304 64.8361C13.1001 63.3546 12.2403 61.3452 12.2403 59.25C12.2403 57.1548 13.1001 55.1454 14.6304 53.6639C16.1607 52.1823 18.2363 51.35 20.4005 51.35C22.5647 51.35 24.6403 52.1823 26.1707 53.6639C27.701 55.1454 28.5607 57.1548 28.5607 59.25C28.5607 61.3452 27.701 63.3546 26.1707 64.8361C24.6403 66.3177 22.5647 67.15 20.4005 67.15Z" fill="#F21A1A"/>
</svg>
